<svg width="149" height="50" viewBox="0 0 149 50" fill="none" xmlns="http://www.w3.org/2000/svg">
<g clip-path="url(#clip0_2_39)">
<path d="M59.6428 20.158H62.0509V30.3178H59.6841L59.5602 28.8339C58.9868 30.03 57.3964 30.6068 56.2623 30.6274C53.2533 30.648 51.0276 28.7927 51.0276 25.2276C51.0276 21.7244 53.3566 19.8897 56.3242 19.9104C57.6842 19.9104 58.9834 20.5503 59.5602 21.5593L59.6428 20.158V20.158ZM53.5458 25.2275C53.5458 27.1655 54.8851 28.3237 56.5547 28.3237C60.5121 28.3237 60.5121 22.1612 56.5547 22.1612C54.8817 22.1544 53.5458 23.2907 53.5458 25.2275Z" fill="#1A1A1A"/>
<path d="M65.8464 15.9129V30.3178H63.3524V15.9129H65.8464Z" fill="#1A1A1A"/>
<path d="M70.7716 17.2935V20.1786H73.5741V22.3424H70.7464V26.732C70.7464 27.701 71.2819 28.1746 72.0651 28.1746C72.488 28.1624 72.904 28.0567 73.2818 27.866L73.9825 30.0092C73.3226 30.2835 72.6154 30.4312 71.9014 30.4415C69.6963 30.5241 68.2526 29.2673 68.2526 26.732L68.2523 22.3424H66.3614V20.1786H68.2569V17.5607L70.7716 17.2935Z" fill="#1A1A1A"/>
<path d="M76.7688 26.1346C76.934 27.396 78.0302 28.2984 79.7985 28.2984C80.7261 28.2984 81.9416 27.9544 82.5184 27.3501L84.1238 28.9371C83.0528 30.0505 81.3007 30.5861 79.7549 30.5861C76.2517 30.5861 74.1704 28.4223 74.1704 25.1656C74.1704 22.0695 76.2723 19.8484 79.5691 19.8484C82.9703 19.8484 85.0928 21.9514 84.7006 26.1346H76.7688V26.1346ZM82.2925 24.0533C82.1274 22.7346 81.0965 22.0741 79.6551 22.0741C78.2951 22.0741 77.1828 22.7346 76.8113 24.0533H82.2925Z" fill="#1A1A1A"/>
<path d="M88.1453 20.158L88.3311 21.3322C89.1142 20.0708 90.1658 19.8896 91.1978 19.8896C92.2493 19.8896 93.2619 20.3024 93.8158 20.8585L92.6816 23.043C92.1668 22.6106 91.6921 22.3836 90.8676 22.3836C89.5489 22.3836 88.3333 23.0842 88.3333 24.9602V30.3176L85.8163 30.3177V20.1579H88.1453V20.158Z" fill="#1A1A1A"/>
<path d="M101.417 30.3178V25.0016C101.417 23.4559 100.573 22.2805 98.9656 22.2805C97.4198 22.2805 96.3683 23.5785 96.3683 25.1243V30.3178H93.8754V20.1373H96.1218L96.2858 21.5134C97.3178 20.5043 98.3499 19.9882 99.625 19.9882C102.016 19.9882 103.932 21.7817 103.932 24.9763V30.3131L101.417 30.3177L101.417 30.3178Z" fill="#1A1A1A"/>
<path d="M113.33 20.158H115.738V30.3178H113.369L113.245 28.8339C112.672 30.03 111.082 30.6068 109.948 30.6274C106.939 30.648 104.713 28.7927 104.713 25.2276C104.713 21.7244 107.042 19.8897 110.009 19.9104C111.37 19.9104 112.669 20.5503 113.245 21.5593L113.33 20.158V20.158ZM107.23 25.2275C107.23 27.1655 108.569 28.3237 110.239 28.3237C114.196 28.3237 114.196 22.1612 110.239 22.1612C108.569 22.1544 107.23 23.2907 107.23 25.2275Z" fill="#1A1A1A"/>
<path d="M120.152 17.2935V20.1786H122.955V22.3424H120.132V26.732C120.132 27.701 120.667 28.1746 121.45 28.1746C121.873 28.1624 122.289 28.0567 122.667 27.866L123.368 30.0092C122.708 30.284 122 30.4312 121.285 30.4415C119.08 30.5241 117.638 29.2673 117.638 26.7319L117.637 22.3424H115.742V20.1786H117.637V17.5607L120.152 17.2935Z" fill="#1A1A1A"/>
<path d="M126.747 17.2935C126.747 19.2509 123.779 19.2509 123.779 17.2935C123.779 15.3361 126.747 15.3361 126.747 17.2935ZM124.006 20.1167V30.3224H126.52V20.1167H124.006Z" fill="#1A1A1A"/>
<path d="M138.494 20.1373L134.166 30.3591L131.446 30.359L127.098 20.1373L129.838 20.1373L131.24 23.4972L132.806 27.7835L134.352 23.5407L135.753 20.1408L138.494 20.1373Z" fill="#1A1A1A"/>
<path d="M141.029 26.1346C141.194 27.396 142.29 28.2984 144.059 28.2984C144.986 28.2984 146.202 27.9544 146.78 27.3501L148.385 28.9371C147.314 30.0505 145.562 30.5861 144.016 30.5861C140.513 30.5861 138.432 28.4223 138.432 25.1656C138.432 22.0695 140.534 19.8484 143.83 19.8484C147.232 19.8484 149.354 21.9514 148.963 26.1346H141.029V26.1346ZM146.553 24.0533C146.388 22.7346 145.357 22.0741 143.915 22.0741C142.555 22.0741 141.443 22.7346 141.071 24.0533H146.553Z" fill="#1A1A1A"/>
<path d="M53.5413 31.8366V37.4635C54.1387 36.412 55.8083 35.8352 56.8805 35.8352C59.8482 35.8352 62.0533 37.6493 62.0533 41.1524C62.0533 44.4905 59.8069 46.4697 56.8186 46.4697C55.5813 46.4697 54.3245 46.0569 53.5413 44.8413L53.3762 46.2426L51.0277 46.2427V31.8366H53.5413V31.8366ZM53.7064 41.1524C53.7064 42.9871 55.0664 44.1407 56.6534 44.1407C58.2588 44.1407 59.5385 42.9252 59.5385 41.1524C59.5385 39.3177 58.2611 38.1847 56.6534 38.1847C55.0664 38.1847 53.7064 39.3796 53.7064 41.1524Z" fill="#1A1A1A"/>
<path d="M71.971 36.0829H74.3791V46.2427H72.0169L71.893 44.7589C71.3196 45.9549 69.7292 46.5317 68.5962 46.5523C65.5872 46.5729 63.3615 44.7176 63.3615 41.1525C63.3615 37.6493 65.6893 35.8146 68.657 35.8353C70.0182 35.8353 71.3162 36.474 71.893 37.4842L71.971 36.0829V36.0829ZM65.8705 41.1524C65.8705 43.0892 67.2099 44.2486 68.8795 44.2486C72.8368 44.2486 72.8368 38.0861 68.8795 38.0861C67.2099 38.0816 65.8705 39.2168 65.8705 41.1524Z" fill="#1A1A1A"/>
<path d="M83.4521 46.2427V40.9254C83.4521 39.3797 82.607 38.2055 81.0005 38.2055C79.4547 38.2055 78.4032 39.5035 78.4032 41.0493V46.2427L75.9091 46.2427V36.0623H78.1566L78.3206 37.4383C79.3527 36.428 80.3847 35.9131 81.6599 35.9131C84.0507 35.9131 85.9669 37.7066 85.9669 40.9001V46.238L83.4522 46.2426L83.4521 46.2427Z" fill="#1A1A1A"/>
<path d="M89.9057 31.8366V40.1628L93.3275 36.0829H96.3364V36.2273L92.1934 40.8635L96.9132 46.0569V46.2427H93.8836L89.9057 41.6467V46.2427H87.3921V31.8366H89.9057Z" fill="#1A1A1A"/>
<path d="M55.4378 1.40128V4.2864H58.2404V6.45023H55.4184V10.8398C55.4184 11.8088 55.9539 12.2824 56.7371 12.2824C57.1597 12.2709 57.5758 12.1648 57.9528 11.9737L58.6521 14.1147C57.993 14.3902 57.2846 14.5374 56.5707 14.547C54.3656 14.6295 52.9231 13.3727 52.9231 10.8373L52.9231 6.45023H51.0276V4.2864H52.9231V1.66964L55.4378 1.40128Z" fill="#1A1A1A"/>
<path d="M61.5991 1.11209e-05V5.64639C62.5061 4.47219 63.6196 4.12126 64.7732 4.12126C67.6583 4.12126 68.9369 6.07985 68.9369 9.06812V14.4267H66.4267V9.08877C66.4267 7.2334 65.4578 6.45139 64.1184 6.45139C62.6345 6.45139 61.6037 7.71274 61.6037 9.23442V14.4278H59.0878V-3.05176e-05H61.5991L61.5991 1.11209e-05Z" fill="#1A1A1A"/>
<path d="M72.1728 10.2424C72.3369 11.5037 73.4342 12.4062 75.2013 12.4062C76.129 12.4062 77.3456 12.0622 77.9224 11.459L79.5279 13.0449C78.4557 14.1584 76.7035 14.6939 75.1589 14.6939C71.6545 14.6939 69.5733 12.5301 69.5733 9.27342C69.5733 6.18302 71.6752 3.95728 74.9731 3.95728C78.3731 3.95728 80.4956 6.05923 80.1046 10.2424L72.1728 10.2424V10.2424ZM77.6954 8.16109C77.5303 6.8424 76.5005 6.18298 75.058 6.18298C73.6968 6.18298 72.5845 6.8424 72.2141 8.16109H77.6954Z" fill="#1A1A1A"/>
<path d="M6.63372 22.1623L0.494629 28.1687L4.63133 20.6176L12.7434 9.80858L17.7981 7.99115L6.63372 22.1623Z" fill="#B89B45"/>
<path d="M6.61393 32.3807L0 38.8816L4.53713 30.9278L23.1444 6.06941L28.9197 3.99252L6.61393 32.3807Z" fill="#B89B45"/>
<path d="M11.7724 35.9888L2.46692 45.8643L9.56386 34.446L33.7256 2.26423L39.8949 0.0838318L11.7724 35.9888Z" fill="#B89B45"/>
<path d="M39.9332 10.1467L16.869 39.5541L7.45758 49.5709L14.6597 38.0091L39.9332 4.34253V10.1467Z" fill="#B89B45"/>
<path d="M39.9332 20.0704L21.9017 43.0745L14.9637 50L19.8145 41.615L39.9332 14.7151V20.0704Z" fill="#B89B45"/>
<path d="M39.9331 29.9325L31.5718 40.5637L25.3748 46.6123L29.5486 39.0702L39.9331 25.2028V29.9325Z" fill="#B89B45"/>
</g>
<defs>
<clipPath id="clip0_2_39">
<rect width="149.009" height="50" fill="white"/>
</clipPath>
</defs>
</svg>
