<svg width="40" height="50" viewBox="0 0 40 50" fill="none" xmlns="http://www.w3.org/2000/svg">
<path d="M6.63372 22.1623L0.494629 28.1687L4.63133 20.6176L12.7434 9.80858L17.7981 7.99115L6.63372 22.1623Z" fill="#B89B45"/>
<path d="M6.61393 32.3807L0 38.8816L4.53713 30.9278L23.1444 6.06941L28.9197 3.99252L6.61393 32.3807Z" fill="#B89B45"/>
<path d="M11.7723 35.9888L2.4668 45.8643L9.56374 34.446L33.7255 2.26423L39.8948 0.0838318L11.7723 35.9888Z" fill="#B89B45"/>
<path d="M39.9331 10.1467L16.869 39.5541L7.45752 49.5709L14.6597 38.0091L39.9331 4.34253V10.1467Z" fill="#B89B45"/>
<path d="M39.933 20.0704L21.9015 43.0745L14.9636 50L19.8144 41.615L39.933 14.7151V20.0704Z" fill="#B89B45"/>
<path d="M39.9331 29.9325L31.5717 40.5637L25.3748 46.6123L29.5485 39.0702L39.9331 25.2028V29.9325Z" fill="#B89B45"/>
</svg>
